<svg width="106" height="24" viewBox="0 0 106 24" fill="none" xmlns="http://www.w3.org/2000/svg">
<path d="M0.328 18V0.863999H13.192V18H11.056V2.76H2.488V18H0.328ZM23.7147 4.896C25.2987 4.896 26.5707 5.448 27.5307 6.552C28.5067 7.656 28.9947 9.32 28.9947 11.544C28.9947 13 28.7707 14.232 28.3227 15.24C27.8907 16.232 27.2747 16.984 26.4747 17.496C25.6907 17.992 24.7627 18.24 23.6907 18.24C23.0347 18.24 22.4507 18.152 21.9387 17.976C21.4267 17.8 20.9867 17.576 20.6187 17.304C20.2667 17.016 19.9627 16.704 19.7067 16.368H19.5627C19.5947 16.64 19.6267 16.984 19.6587 17.4C19.6907 17.816 19.7067 18.176 19.7067 18.48V23.76H17.5947V5.136H19.3227L19.6107 6.888H19.7067C19.9627 6.52 20.2667 6.184 20.6187 5.88C20.9867 5.576 21.4187 5.336 21.9147 5.16C22.4267 4.984 23.0267 4.896 23.7147 4.896ZM23.3307 6.672C22.4667 6.672 21.7707 6.84 21.2427 7.176C20.7147 7.496 20.3307 7.984 20.0907 8.64C19.8507 9.296 19.7227 10.128 19.7067 11.136V11.544C19.7067 12.6 19.8187 13.496 20.0427 14.232C20.2667 14.968 20.6427 15.528 21.1707 15.912C21.7147 16.296 22.4507 16.488 23.3787 16.488C24.1627 16.488 24.8027 16.272 25.2987 15.84C25.8107 15.408 26.1867 14.824 26.4267 14.088C26.6827 13.336 26.8107 12.48 26.8107 11.52C26.8107 10.048 26.5227 8.872 25.9467 7.992C25.3867 7.112 24.5147 6.672 23.3307 6.672ZM43.5443 11.544C43.5443 12.616 43.4003 13.568 43.1123 14.4C42.8403 15.216 42.4403 15.912 41.9123 16.488C41.4003 17.064 40.7683 17.504 40.0163 17.808C39.2803 18.096 38.4563 18.24 37.5443 18.24C36.6963 18.24 35.9123 18.096 35.1923 17.808C34.4723 17.504 33.8483 17.064 33.3203 16.488C32.7923 15.912 32.3763 15.216 32.0723 14.4C31.7843 13.568 31.6403 12.616 31.6403 11.544C31.6403 10.12 31.8803 8.92 32.3603 7.944C32.8403 6.952 33.5283 6.2 34.4243 5.688C35.3203 5.16 36.3843 4.896 37.6163 4.896C38.7843 4.896 39.8083 5.16 40.6883 5.688C41.5843 6.2 42.2803 6.952 42.7763 7.944C43.2883 8.92 43.5443 10.12 43.5443 11.544ZM33.8243 11.544C33.8243 12.552 33.9523 13.432 34.2083 14.184C34.4803 14.92 34.8963 15.488 35.4563 15.888C36.0163 16.288 36.7283 16.488 37.5923 16.488C38.4563 16.488 39.1683 16.288 39.7283 15.888C40.2883 15.488 40.6963 14.92 40.9523 14.184C41.2243 13.432 41.3603 12.552 41.3603 11.544C41.3603 10.52 41.2243 9.648 40.9523 8.928C40.6803 8.208 40.2643 7.656 39.7043 7.272C39.1603 6.872 38.4483 6.672 37.5683 6.672C36.2563 6.672 35.3043 7.104 34.7123 7.968C34.1203 8.832 33.8243 10.024 33.8243 11.544ZM51.8596 4.896C52.9636 4.896 53.9076 5.136 54.6916 5.616C55.4916 6.096 56.0996 6.776 56.5156 7.656C56.9476 8.52 57.1636 9.536 57.1636 10.704V11.976H48.3556C48.3876 13.432 48.7556 14.544 49.4596 15.312C50.1796 16.064 51.1796 16.44 52.4596 16.44C53.2756 16.44 53.9956 16.368 54.6196 16.224C55.2596 16.064 55.9156 15.84 56.5876 15.552V17.4C55.9316 17.688 55.2836 17.896 54.6436 18.024C54.0036 18.168 53.2436 18.24 52.3636 18.24C51.1476 18.24 50.0676 17.992 49.1236 17.496C48.1956 17 47.4676 16.264 46.9396 15.288C46.4276 14.296 46.1716 13.088 46.1716 11.664C46.1716 10.256 46.4036 9.048 46.8676 8.04C47.3476 7.032 48.0116 6.256 48.8596 5.712C49.7236 5.168 50.7236 4.896 51.8596 4.896ZM51.8356 6.624C50.8276 6.624 50.0276 6.952 49.4356 7.608C48.8596 8.248 48.5156 9.144 48.4036 10.296H54.9556C54.9556 9.56 54.8436 8.92 54.6196 8.376C54.3956 7.832 54.0516 7.408 53.5876 7.104C53.1396 6.784 52.5556 6.624 51.8356 6.624ZM68.0464 5.136H70.3504L64.8544 11.328L70.8064 18H68.3584L62.5504 11.472V18H60.4384V5.136H62.5504V11.376L68.0464 5.136ZM82.0216 6.912H77.8216V18H75.7336V6.912H71.5816V5.136H82.0216V6.912ZM93.5316 18.72C92.6036 18.512 91.6516 18.368 90.6756 18.288C89.7156 18.224 88.8356 18.192 88.0356 18.192C86.3396 18.192 84.6516 18.32 82.9716 18.576L82.5156 17.856L82.6836 17.688C83.5956 16.648 84.4756 15.608 85.3236 14.568C86.1716 13.512 86.9396 12.496 87.6276 11.52C88.3156 10.528 88.8596 9.6 89.2596 8.736C89.6596 7.872 89.8596 7.096 89.8596 6.408C89.8596 5.56 89.6116 4.984 89.1156 4.68C88.6356 4.36 88.0596 4.2 87.3876 4.2C86.7636 4.2 86.1236 4.296 85.4676 4.488C84.8276 4.68 84.2836 4.888 83.8356 5.112L83.5476 4.44L84.4356 2.712C84.9156 2.648 85.3636 2.6 85.7796 2.568C86.2116 2.536 86.6116 2.52 86.9796 2.52C88.0996 2.52 89.0116 2.64 89.7156 2.88C90.4356 3.12 90.9876 3.432 91.3716 3.816C91.7556 4.2 92.0196 4.616 92.1636 5.064C92.3076 5.496 92.3796 5.92 92.3796 6.336C92.3796 6.976 92.1796 7.696 91.7796 8.496C91.3956 9.28 90.8836 10.112 90.2436 10.992C89.6036 11.856 88.8916 12.728 88.1076 13.608C87.3236 14.488 86.5396 15.336 85.7556 16.152C87.1316 16.264 88.4916 16.408 89.8356 16.584C91.1796 16.744 92.3316 16.984 93.2916 17.304C93.3716 17.416 93.4356 17.616 93.4836 17.904C93.5476 18.176 93.5796 18.376 93.5796 18.504C93.5796 18.648 93.5636 18.72 93.5316 18.72ZM103.06 18.816C102.948 18.816 102.788 18.784 102.58 18.72C102.372 18.656 102.228 18.568 102.148 18.456C101.988 17.352 101.844 16.232 101.716 15.096C101.412 15.112 101.108 15.128 100.804 15.144C100.5 15.144 100.196 15.144 99.8916 15.144C98.9956 15.144 98.1076 15.088 97.2276 14.976C96.3476 14.864 95.5156 14.68 94.7316 14.424C94.6196 14.344 94.5316 14.168 94.4676 13.896C94.4036 13.624 94.3716 13.432 94.3716 13.32C95.3636 11.768 96.1956 10.448 96.8676 9.36C97.5396 8.256 98.0916 7.32 98.5236 6.552C98.9716 5.768 99.3476 5.088 99.6516 4.512C99.9556 3.92 100.244 3.352 100.516 2.808C100.66 2.648 100.852 2.536 101.092 2.472C101.332 2.392 101.524 2.352 101.668 2.352L104.788 3.504C104.292 4.72 103.924 6.136 103.684 7.752C103.444 9.352 103.284 11.008 103.204 12.72C103.828 12.544 104.372 12.352 104.836 12.144L105.196 12.792L104.26 14.808C104.084 14.84 103.9 14.872 103.708 14.904C103.516 14.92 103.332 14.944 103.156 14.976V15.792C103.156 16.384 103.164 16.936 103.18 17.448C103.196 17.944 103.22 18.376 103.252 18.744C103.252 18.792 103.188 18.816 103.06 18.816ZM96.8436 13.488C97.6436 13.488 98.4356 13.456 99.2196 13.392C100.02 13.328 100.788 13.232 101.524 13.104C101.492 12.544 101.46 11.992 101.428 11.448C101.412 10.888 101.404 10.336 101.404 9.792C101.404 8.848 101.428 7.896 101.476 6.936C101.54 5.96 101.604 5.072 101.668 4.272H101.428C101.028 5.04 100.612 5.872 100.18 6.768C99.7476 7.664 99.2596 8.664 98.7156 9.768C98.1876 10.856 97.5636 12.096 96.8436 13.488Z" fill="black"/>
</svg>
